# AST/ASF file generated using VICON BodyLanguage
# -----------------------------------------------
:version 1.10
:name VICON
:units
  mass 1.0
  length 0.45
  angle deg
:documentation
   .ast/.asf automatically generated from VICON data using
   VICON BodyBuilder and BodyLanguage model FoxedUp or BRILLIANT.MOD
:root
   order TX TY TZ RX RY RZ
   axis XYZ
   position 0 0 0  
   orientation 0 0 0 
:bonedata
  begin
     id 1 
     name lhipjoint
     direction 0.603808 -0.713975 0.35448 
     length 2.2025 
     axis 0 0 0  XYZ
  end
  begin
     id 2 
     name lfemur
     direction 0.34202 -0.939693 0  
     length 6.55877  
     axis 0 0 20  XYZ
    dof rx ry rz
    limits (-160.0 20.0)
           (-70.0 70.0)
           (-60.0 70.0)
  end
  begin
     id 3 
     name ltibia
     direction 0.34202 -0.939693 0   
     length 6.80302   
     axis 0 0 20   XYZ
    dof rx
    limits (-10.0 170.0)
  end
  begin
     id 4 
     name lfoot
     direction 0.091848 -0.25235 0.963267   
     length 2.03446   
     axis -90 7.62852e-016 20   XYZ
    dof rx rz
    limits (-45.0 90.0)
           (-70.0 20.0)
  end
  begin
     id 5 
     name ltoes
     direction 1.53608e-011 -4.21925e-011 1   
     length 1.02033   
     axis -90 7.62852e-016 20   XYZ
    dof rx
    limits (-90.0 20.0)
  end
  begin
     id 6 
     name rhipjoint
     direction -0.587285 -0.724947 0.359928   
     length 2.16916  
     axis 0 0 0  XYZ 
  end
  begin
     id 7 
     name rfemur
     direction -0.34202 -0.939693 0   
     length 6.43173   
     axis 0 0 -20   XYZ
    dof rx ry rz
    limits (-160.0 20.0)
           (-70.0 70.0)
           (-70.0 60.0)
  end
  begin
     id 8 
     name rtibia
     direction -0.34202 -0.939693 0   
     length 6.70662   
     axis 0 0 -20   XYZ
    dof rx
    limits (-10.0 170.0)
 end
 begin
     id 9 
     name rfoot
     direction -0.11854 -0.325686 0.938018   
     length 2.0773  
     axis -90 -7.62852e-016 -20   XYZ
    dof rx rz
    limits (-45.0 90.0)
           (-20.0 70.0)
  end
  begin
     id 10 
     name rtoes
     direction -1.53547e-011 -4.21838e-011 1   
     length 1.03267   
     axis -90 -7.62852e-016 -20   XYZ
    dof rx
    limits (-90.0 20.0)
  end
  begin
     id 11 
     name lowerback
     direction -0.0286554 0.999539 0.0100613   
     length 2.08751   
     axis 0 0 0   XYZ
    dof rx ry rz
    limits (-20.0 45.0)
           (-30.0 30.0)
           (-30.0 30.0)
  end
  begin
     id 12 
     name upperback
     direction 0.0227093 0.999705 -0.00860929   
     length 2.08517   
     axis 0 0 0   XYZ
    dof rx ry rz
    limits (-20.0 45.0)
           (-30.0 30.0)
           (-30.0 30.0)
  end
  begin
     id 13 
     name thorax
     direction 0.0351627 0.999285 -0.013892   
     length 2.08412   
     axis 0 0 0   XYZ
    dof rx ry rz
    limits (-20.0 45.0)
           (-30.0 30.0)
           (-30.0 30.0)
  end
  begin
     id 14 
     name lowerneck
     direction -0.0696283 0.997344 0.0213922   
     length 1.44164   
     axis 0 0 0   XYZ
    dof rx ry rz
    limits (-20.0 45.0)
           (-30.0 30.0)
           (-30.0 30.0)
  end
  begin
     id 15 
     name upperneck
     direction 0.0531 0.990412 -0.127531   
     length 1.45022   
     axis 0 0 0   XYZ
    dof rx ry rz
    limits (-20.0 45.0)
           (-30.0 30.0)
           (-30.0 30.0)
  end
  begin
     id 16
     name head
     direction 0.0188154 0.998548 -0.0504727  
     length 1.45845  
     axis 0 0 0   XYZ
    dof rx ry rz
    limits (-20.0 45.0)
           (-30.0 30.0)
           (-30.0 30.0)
  end
  begin
     id 17 
     name lclavicle
     direction 0.961559 0.260051 0.088188  
     length 2.86057  
     axis 0 0 0   XYZ
    dof ry rz
    limits (-20.0 10.0)
           (0.0 20.0)
  end
  begin
     id 18 
     name lhumerus
     direction 1 -4.48959e-011 2.88185e-027   
     length 4.36901   
     axis 180 -30 -90   XYZ
    dof rx ry rz
    limits (-60.0 90.0)
           (-90.0 90.0)
           (-90.0 90.0)
  end
  begin
     id 19
     name lradius
     direction 1 -4.48965e-011 -3.92618e-028   
     length 3.21737   
     axis 180 -30 -90   XYZ
    dof rx
    limits (-10.0 170.0)
  end
  begin
     id 20
     name lwrist
     direction 1 -4.49037e-011 2.57246e-027   
     length 1.60869   
     axis -1.61769e-015 90 90   XYZ
    dof ry
    limits (-180.0 0.0)
 end
  begin
     id 21 
     name lhand
     direction 1 -4.48807e-011 5.12958e-027   
     length 0.564313   
     axis -3.27988e-015 90 90   XYZ
    dof rx rz
    limits (-90.0 90.0)
           (-45.0 45.0)
  end
  begin
     id 22 
     name lfingers
     direction 1 -4.48879e-011 1.02687e-026   
     length 0.454963   
     axis -6.5598e-015 90 90   XYZ
    dof rx
    limits (0.0 90.0)
  end
  begin
     id 23
     name lthumb
     direction 0.707107 -6.3475e-011 0.707107   
     length 0.653239   
     axis -90 45 2.19363e-014   XYZ
    dof rx rz
    limits (-45.0 45.0)
           (-45.0 45.0)
  end
  begin
     id 24 
     name rclavicle
     direction -0.954677 0.253915 0.155304   
     length 3.11497  
     axis 0 0 0   XYZ 
    dof ry rz
    limits (-10.0 20.0)
           (-20.0 0.0)
  end
  begin
     id 25 
     name rhumerus
     direction -1 -4.48958e-011 -8.20169e-028  
     length 4.34118   
     axis 180 30 90   XYZ
    dof rx ry rz
    limits (-90.0 60.0)
           (-90.0 90.0)
           (-90.0 90.0)
  end
  begin
     id 26 
     name rradius
     direction -1 -4.48978e-011 1.5676e-027   
     length 3.09531   
     axis 180 30 90   XYZ
    dof rx
    limits (-10.0 170.0)
  end
  begin
     id 27 
     name rwrist
     direction -1 -4.49001e-011 2.57123e-027   
     length 1.54765   
     axis -1.61769e-015 -90 -90   XYZ
    dof ry
    limits (-180.0 0.0)
  end
  begin
     id 28
     name rhand
     direction -1 -4.48847e-011 5.13225e-027   
     length 0.597446   
     axis -3.27988e-015 -90 -90   XYZ
    dof rx rz
    limits (-90.0 90.0)
           (-45.0 45.0)
  end
  begin
     id 29
     name rfingers
     direction -1 -4.49094e-011 1.02974e-026   
     length 0.481677   
     axis -6.5598e-015 -90 -90   XYZ
    dof rx
    limits (0.0 90.0)
  end
  begin
     id 30
     name rthumb
     direction -0.707107 -6.34859e-011 0.707107   
     length 0.691594   
     axis -90 -45 -2.19363e-014   XYZ
    dof rx rz
    limits (-45.0 45.0)
           (-45.0 45.0)
  end
:hierarchy
  begin
    root lhipjoint rhipjoint lowerback
    lhipjoint lfemur
    lfemur ltibia
    ltibia lfoot
    lfoot ltoes
    rhipjoint rfemur
    rfemur rtibia
    rtibia rfoot
    rfoot rtoes
    lowerback upperback
    upperback thorax
    thorax lowerneck lclavicle rclavicle
    lowerneck upperneck
    upperneck head
    lclavicle lhumerus
    lhumerus lradius
    lradius lwrist
    lwrist lhand lthumb
    lhand lfingers
    rclavicle rhumerus
    rhumerus rradius
    rradius rwrist
    rwrist rhand rthumb
    rhand rfingers
  end

#!OML:ASF G:\acrobat\cartwheel_test 2\Patient 1\Session 1\acrobat.ASF
:FULLY-SPECIFIED
:DEGREES
17
root 8.01929 13.8766 26.5177 -99.8209 -4.37372 151.793
lowerback 19.7195 2.61413 8.73561
upperback 0.0304946 5.46215 12.8985
thorax -11.6586 2.00082 8.21636
lowerneck -15.9664 -5.55141 -10.8494
upperneck -8.10078 -6.10551 9.83433
head 0.736033 -2.98891 4.42119
rclavicle 5.08889e-014 3.02153e-014
rhumerus 68.3384 -19.628 -44.6356
rradius 31.7562
rwrist -10.2723
rhand -36.6696 29.0704
rfingers 7.12502
rthumb -9.75589 -0.68364
lclavicle 5.08889e-014 3.02153e-014
lhumerus 38.3734 40.0012 -5.69217
lradius 60.9372
lwrist 34.6593
lhand -35.85 40.6719
lfingers 7.12502
lthumb -8.96507 70.4614
rfemur -110.102 -21.581 16.8701
rtibia 68.8542
rfoot -31.5294 -36.3226
rtoes -4.30138
lfemur -22.3448 14.937 -35.12
ltibia 23.6406
lfoot -31.6661 -26.9207
ltoes -70.3584
18
root 8.12044 13.8935 25.306 -96.4074 -3.02599 147.748
lowerback 19.2149 2.48347 8.1374
upperback -0.0141045 5.10726 14.3227
thorax -11.6245 1.92868 10.4381
lowerneck -15.9443 -4.79652 -11.9237
upperneck -10.3095 -5.00233 10.5843
head 0.0169457 -2.5032 4.95158
rclavicle 0 -1.25632e-013
rhumerus 69.6816 -19.067 -48.9411
rradius 34.0966
rwrist -13.1219
rhand -37.5061 32.3549
rfingers 7.12502
rthumb -10.5629 2.6403
lclavicle 0 -1.25632e-013
lhumerus 35.1424 39.9586 -5.426
lradius 60.9618
lwrist 33.5705
lhand -34.976 40.3907
lfingers 7.12502
lthumb -8.12165 70.2146
rfemur -105.286 -24.991 13.1111
rtibia 66.3753
rfoot -33.6229 -38.0937
rtoes -7.61039
lfemur -17.7917 15.4174 -30.1599
ltibia 26.1314
lfoot -40.2805 -20.329
ltoes -68.7835
19
root 8.21826 13.916 24.1143 -92.9662 -0.349785 143.017
lowerback 18.3487 2.30987 7.18961
upperback -0.464593 4.72221 15.0528
thorax -11.7829 1.89803 12.0693
lowerneck -16.3768 -4.19196 -12.942
upperneck -11.3655 -4.04097 11.0817
head -0.306608 -2.03851 5.35565
rclavicle -8.90555e-014 -1.94014e-013
rhumerus 68.9776 -18.599 -50.9159
rradius 37.0943
rwrist -15.514
rhand -37.1041 38.1171
rfingers 7.12502
rthumb -10.1751 8.38312
lclavicle -8.90555e-014 -1.94014e-013
lhumerus 33.2821 40.1831 -3.46625
lradius 61.8449
lwrist 33.1133
lhand -35.6599 40.4244
lfingers 7.12502
lthumb -8.7816 70.2217
rfemur -99.0842 -29.2862 7.58042
rtibia 61.9485
rfoot -34.476 -39.4806
rtoes -10.3299
lfemur -13.6449 15.6602 -26.1412
ltibia 28.9078
lfoot -45.8471 -13.591
ltoes -66.021
20
root 8.24592 13.9729 22.9225 -90.0098 3.96936 139.644
lowerback 17.7804 2.50458 6.0271
upperback -1.13461 4.89104 15.0259
thorax -12.3844 2.13839 12.7408
lowerneck -15.6309 -3.39165 -13.2062
upperneck -12.5562 -3.03875 10.8333
head -0.893193 -1.57847 5.41319
rclavicle 1.62208e-013 7.4743e-014
rhumerus 67.5126 -17.8255 -51.4843
rradius 38.9863
rwrist -2.91793
rhand -47.3436 52.4254
rfingers 7.12502
rthumb -20.0376 23.4386
lclavicle 1.62208e-013 7.4743e-014
lhumerus 33.134 39.8216 -0.271267
lradius 62.539
lwrist 33.2905
lhand -36.548 40.2979
lfingers 7.12502
lthumb -9.6386 70.0574
rfemur -90.9111 -32.7172 -0.0407688
rtibia 55.1548
rfoot -33.8746 -38.9381
rtoes -12.5453
lfemur -8.58029 17.2216 -23.259
ltibia 27.8255
lfoot -49.5406 4.68152
ltoes -62.3354
21
root 8.2243 14.075 21.715 -87.0099 8.48831 136.842
lowerback 17.091 2.71264 6.11778
upperback -2.28411 5.36081 14.4277
thorax -13.342 2.39773 11.8667
lowerneck -14.5021 -2.725 -11.9017
upperneck -13.2326 -2.46171 9.53274
head -1.37677 -1.34422 4.83546
rclavicle 2.22639e-014 4.77083e-014
rhumerus 66.5825 -18.5577 -53.6354
rradius 40.533
rwrist 4.18177
rhand -49.9033 62.8878
rfingers 7.12502
rthumb -22.4963 34.1782
lclavicle 2.22639e-014 4.77083e-014
lhumerus 34.8884 38.8435 3.79261
lradius 62.7238
lwrist 33.8264
lhand -37.1032 40.5269
lfingers 7.12502
lthumb -10.1742 70.2609
rfemur -80.2238 -35.0032 -9.52812
rtibia 46.0659
rfoot -32.1829 -37.8276
rtoes -12.9029
lfemur -2.22299 19.7571 -19.52
ltibia 26.8993
lfoot -51.2901 4.93858
ltoes -55.2277
22
root 8.17224 14.2053 20.496 -83.3518 13.0737 134.785
lowerback 15.4869 2.81411 6.58738
upperback -3.50858 5.57806 14.07
thorax -13.7766 2.48174 11.151
lowerneck -13.8478 -2.12022 -11.1777
upperneck -13.2022 -1.81638 8.7551
head -1.55389 -1.03503 4.49891
rclavicle -7.31528e-014 9.54166e-015
rhumerus 64.9504 -19.0803 -53.0635
rradius 45.6852
rwrist 3.95754
rhand -49.2586 62.1558
rfingers 7.12502
rthumb -21.8774 33.3726
lclavicle -7.31528e-014 9.54166e-015
lhumerus 35.645 38.1814 7.19565
lradius 62.4778
lwrist 35.1427
lhand -36.9822 41.2547
lfingers 7.12502
lthumb -10.0575 70.9944
rfemur -63.414 -32.6011 -25.2206
rtibia 29.7262
rfoot -28.2968 -39.6243
rtoes -6.9087
lfemur 2.74698 20.52 -16.1534
ltibia 25.518
lfoot -51.4627 7.24972
ltoes -46.1508
